<?xml version="1.0" standalone="no"?>
<!DOCTYPE svg PUBLIC "-//W3C//DTD SVG 20010904//EN"
 "http://www.w3.org/TR/2001/REC-SVG-20010904/DTD/svg10.dtd">
<svg version="1.0" xmlns="http://www.w3.org/2000/svg"
 width="90.000000pt" height="90.000000pt" viewBox="0 0 90.000000 90.000000"
 preserveAspectRatio="xMidYMid meet">
<metadata>
Created by potrace 1.11, written by Peter Selinger 2001-2013
</metadata>
<g transform="translate(0.000000,90.000000) scale(0.100000,-0.100000)"
fill="#000000" stroke="none">
<path d="M321 879 c-150 -49 -248 -151 -295 -308 -58 -196 48 -417 244 -510
71 -33 80 -35 180 -35 58 0 118 6 133 12 28 12 46 9 122 -15 6 -1 22 -5 38 -9
l27 -6 0 79 c0 67 3 81 21 97 12 9 37 52 56 94 102 220 7 477 -213 579 -99 45
-217 54 -313 22z"/>
</g>
</svg>
